<?xml version="1.0" encoding="UTF-8"?><svg id="Capa_2" xmlns="http://www.w3.org/2000/svg" viewBox="0 0 148.85 97.21"><defs><style>.cls-1{fill:#202826;}</style></defs><g id="Capa_1-2"><g><path class="cls-1" d="M23.94,24.8c2.2,0,5.3,.8,7,2.3-3.5,24.3-4,70.1-16.6,70.1-4.5,0-9.2-.9-11.9-1.9-3.6-1.4-3.1-6.8,.7-7.4,2.6,1.6,6.6,3.2,9.7,3.9,4-3.4,7.4-38.9,8.7-61.5,.2-3,.2-5.5,2.4-5.5Zm-1.8-14.8c0-2.5,1.2-10,6-10,2.5,0,4.6,1.3,4.7,4.3,1.5,.7,1.4,.7,1.4,3.2,0,2.8-2,8.1-8.1,8.1-1.5,0-4-1.6-4-5.6Z"/><path class="cls-1" d="M46.74,19.8c3.8,0,8.2,3,8.2,12.2,0,12.8-3.5,24.4-11.4,24.4-4.3,0-5.8-4.2-5.8-4.2,0,0-1.8,5.3-1.8,13.4,0,4.7,1.8,8.2,6.9,8.2,7.7,0,13.9-12.5,13.9-19.1,0,0,0-1.1,1.4-1.1,1.6,0,2.9,2,2.9,4.8,0,8.7-5.4,23.4-16.5,23.4-7.7,0-14.9-7.1-14.9-19.6,0-16.7,8.3-42.4,17.1-42.4Zm-5.3,30.6c3.5,0,6.5-11.3,6.5-20.5,0-4.2-.7-4.7-1.2-4.7-.4,0-.9,.4-1.5,1.8-2.4,5.4-5.2,13.6-6.3,20.9,0,0,.5,2.5,2.5,2.5Z"/><path class="cls-1" d="M80.94,69.3c-1.6,3.5-5.7,7.3-10.6,7.3-7.4,0-13-7.6-13-19.8,0-18.1,8.3-36.1,20.3-36.1,6.8,0,9.8,4.4,9.8,7.4,0,.5-.1,1.1-.1,1.1,.9,.3,4.8,.4,4.2,2.7-3.1,11.2-5.6,21.6-5.6,29.5,0,4.6,.8,7.7,4.2,7.7,5.2,0,6.6-6.5,7.3-12.5,0,0,2.9-.3,2.9,2.7,0,5.3-4.1,16.6-11.7,16.6-4.6,0-7-4.2-7.2-6.6h-.5Zm-11.6,.5c5.9,0,11.3-23.9,11.3-27.5,0,0-3.2-.6-4.6-2.2,2.1-2.9,3.4-6.4,3.4-10,0-.9,0-3.3-1.9-3.3-7.3,0-11.8,23.9-11.8,34.4,0,6.2,1,8.6,3.6,8.6Z"/><path class="cls-1" d="M113.24,42.5c-3.1,8.8-7.9,23.7-7.8,33.1,0,0-1.3,1.5-3.4,1.5-4.5,0-6.7-4.8-6.7-13,0-17.3,4.7-41.4,7-41.4,3.1,0,6.3,2,6,3.5-2,9.9-5.1,22.7-5.1,29.2h.4c3.8-11.1,7.3-21.4,10.4-28.8,.4-.9,1.3-.9,2.2-.9,2.7,0,6.7,1.3,6.4,4.5-.6,7.1-2.2,18.2-2.4,26.1h.4c3.8-11.1,7.1-23.9,12.7-34.7,.4-.9,1.3-.9,2.2-.9,2.7,0,7.3,1.8,7,5-.8,10.2-6.1,25.3-6.1,36.5,0,5.1,1.3,7.6,4.1,7.6,3.3,0,5.3-5.3,6.1-7.9,0,0,2.2,.2,2.2,2.7,0,4.3-4.3,12-11.3,12s-8.7-7.2-8.7-15.3c0-4.3,2-14.7,3-19.8h-1.2c-4.1,8.9-8.8,27.6-8.7,37,0,0-1.3,1.5-3.4,1.5-4.5,0-5.3-4.3-5.4-11.9-.1-8.3,.3-17.7,1-25.6h-.9Z"/></g><path class="cls-1" d="M77.38,14.31c1.04-4.69,3.12-6.2,7.97-9.43,0,0,5.08,2.27,2.25,3.26-3.8,1.32-5.79,4.68-7.5,8.21-1.15,2.38-2.72-2.04-2.72-2.04Z"/></g></svg>